<?xml version="1.0" encoding="UTF-8"?>
<svg id="Layer_2" data-name="Layer 2" xmlns="http://www.w3.org/2000/svg" xmlns:xlink="http://www.w3.org/1999/xlink" viewBox="0 0 234.47 234.47">
  <defs>
    <style>
      .cls-1 {
        fill: url(#linear-gradient);
      }

      .cls-2 {
        fill: #ecfdf5;
      }

      .cls-3 {
        fill: none;
        stroke: #000;
        stroke-miterlimit: 10;
        stroke-width: .54px;
      }

      .cls-4 {
        fill: url(#linear-gradient-3);
      }

      .cls-5 {
        fill: url(#linear-gradient-4);
      }

      .cls-6 {
        fill: url(#linear-gradient-2);
      }
    </style>
    <linearGradient id="linear-gradient" x1="36.77" y1="96.08" x2="105.14" y2="96.08" gradientUnits="userSpaceOnUse">
      <stop offset="0" stop-color="#bbf7d0"/>
      <stop offset="1" stop-color="#22c55e"/>
    </linearGradient>
    <linearGradient id="linear-gradient-2" x1="54.5" y1="104.2" x2="164.69" y2="130.72" gradientUnits="userSpaceOnUse">
      <stop offset="0" stop-color="#bbf7d0"/>
      <stop offset=".93" stop-color="#22c55e"/>
    </linearGradient>
    <linearGradient id="linear-gradient-3" x1="54.96" y1="52.97" x2="164.98" y2="97.42" gradientUnits="userSpaceOnUse">
      <stop offset=".31" stop-color="#bbf7d0"/>
      <stop offset=".97" stop-color="#22c55e"/>
    </linearGradient>
    <linearGradient id="linear-gradient-4" x1="179.07" y1="117.2" x2="75.35" y2="219.59" gradientUnits="userSpaceOnUse">
      <stop offset="0" stop-color="#bbf7d0"/>
      <stop offset=".08" stop-color="#a6f0c0"/>
      <stop offset=".3" stop-color="#77e09d"/>
      <stop offset=".51" stop-color="#52d482"/>
      <stop offset=".7" stop-color="#37cc6e"/>
      <stop offset=".87" stop-color="#27c662"/>
      <stop offset="1" stop-color="#22c55e"/>
    </linearGradient>
  </defs>
  <g id="Layer_1-2" data-name="Layer 1">
    <g>
      <rect class="cls-2" x="0" y="0" width="234.47" height="234.47" rx="117.23" ry="117.23"/>
      <g>
        <path class="cls-3" d="m105.21,117.36h-.01s-.04,0-.05-.01c.03,0,.04.01.07.01Z"/>
        <path class="cls-3" d="m105.21,117.36h-.01s-.04,0-.05-.01c.03,0,.04.01.07.01Z"/>
        <path class="cls-3" d="m105.21,117.36h-.01s-.04,0-.05-.01c.03,0,.04.01.07.01Z"/>
        <path class="cls-1" d="m105.14,117.34c-25.82-2.75-48.57-15.72-64.13-34.81-1.48-1.81-2.9-3.69-4.24-5.62,1.93-.54,3.9-.98,5.9-1.31,3.17-.53,6.41-.8,9.72-.8,2.52,0,5.01.16,7.44.46,10.01,18.54,25.96,33.42,45.31,42.07Z"/>
        <path class="cls-3" d="m105.21,117.36h-.01s-.04,0-.05-.01c.03,0,.04.01.07.01Z"/>
        <path class="cls-6" d="m157.1,104c-.16.92-.37,1.85-.58,2.75-.18.73-.37,1.46-.57,2.16-.33,1.17-.68,2.31-1.07,3.44-1.05,2.97-2.3,5.81-3.79,8.54h0c-21,4.09-38.02,19.31-44.65,39.28-.19-.44-.37-.87-.54-1.32-.91-2.31-1.69-4.69-2.29-7.14-1.18-4.64-1.81-9.49-1.81-14.5,0-3.18.26-6.32.75-9.37.19-1.2.42-2.38.68-3.55.52-2.37,1.18-4.68,1.99-6.92h.01s-.04-.03-.07-.03c-19.34-8.65-35.3-23.53-45.31-42.07-2.56-4.72-4.72-9.67-6.45-14.83,16.84,27.61,47.24,46.04,81.93,46.04,7.49,0,14.78-.86,21.78-2.49Z"/>
        <path class="cls-4" d="m197.7,82.03c-7.75.24-15.12,2-21.84,4.96-.64.29-1.26.58-1.89.88-.8.39-1.59.82-2.37,1.24-5.13,2.83-9.78,6.41-13.83,10.57-.16,1.46-.38,2.9-.67,4.31-6.99,1.63-14.28,2.49-21.78,2.49-34.7,0-65.1-18.43-81.93-46.04-.39-1.16-.76-2.31-1.1-3.48-1.47-4.92-2.54-10.02-3.18-15.25,5.51.5,10.87,1.48,16.05,2.88,25.37,6.84,46.57,23.83,58.99,46.35,4.49-3.56,9.51-6.49,14.92-8.62,2.35-.94,4.77-1.71,7.25-2.34.07-.01.12-.03.18-.04,2.41-.49,4.9-.75,7.44-.75,5.41,0,10.54,1.16,15.17,3.25,5.11-.86,10.38-1.29,15.74-1.29,4.37,0,8.66.29,12.87.87Z"/>
        <path class="cls-5" d="m151.07,120.91c-.19.38-.39.75-.61,1.12-.69,1.22-1.43,2.41-2.2,3.56-2,3.01-4.27,5.82-6.8,8.41-.15.15-.3.3-.44.45-1.58,1.61-3.25,3.11-5.02,4.52-2.03,1.62-4.16,3.11-6.39,4.46.3.38.58.76.86,1.14,0,0,0,.01.01.01,1.66,2.2,3.16,4.52,4.47,6.95,4.61,8.41,7.22,18.05,7.22,28.3,0,4.43-.49,8.76-1.41,12.92-6.07-2.19-11.67-5.35-16.62-9.29-7.7-6.11-13.85-14.1-17.72-23.29,6.64-19.97,23.65-35.19,44.65-39.27Z"/>
      </g>
    </g>
  </g>
</svg>